<?xml version="1.0" encoding="UTF-8"?>
<svg version="1.1" xmlns="http://www.w3.org/2000/svg" width="60" height="60">
  <path d="M0 0 C19.8 0 39.6 0 60 0 C60 19.8 60 39.6 60 60 C40.2 60 20.4 60 0 60 C0 40.2 0 20.4 0 0 Z " fill="#212521" transform="translate(0,0)"/>
  <path d="M0 0 C0.20816044 3.74057997 0.18418338 4.73767822 -2.0625 7.9375 C-4.65232411 10.80931069 -7.54371493 13.27448251 -10.546875 15.703125 C-12.13287611 16.95780703 -12.13287611 16.95780703 -13 19 C-17.78709468 19.12358454 -22.57326181 19.21432771 -27.36157227 19.2746582 C-28.9903175 19.29980568 -30.61894985 19.33392878 -32.24731445 19.37719727 C-34.58833634 19.4378455 -36.92786731 19.46620476 -39.26953125 19.48828125 C-39.99775589 19.51408768 -40.72598053 19.5398941 -41.47627258 19.56648254 C-43.53833008 19.56762695 -43.53833008 19.56762695 -47 19 C-48.9831543 16.46948242 -48.9831543 16.46948242 -50 14 C-38.7495471 -5.17468495 -19.49534285 -1.40509758 0 0 Z " fill="#3CAA00" transform="translate(54,20)"/>
  <path d="M0 0 C1.65 0 3.3 0 5 0 C5.02888146 3.31248187 5.04675799 6.62493167 5.0625 9.9375 C5.07087891 10.88302734 5.07925781 11.82855469 5.08789062 12.80273438 C5.09111328 13.70185547 5.09433594 14.60097656 5.09765625 15.52734375 C5.10289307 16.35999756 5.10812988 17.19265137 5.11352539 18.05053711 C5 20 5 20 4 21 C2.44530745 21.09846461 0.886176 21.12798613 -0.67163086 21.12939453 C-1.66613754 21.13254669 -2.66064423 21.13569885 -3.68528748 21.13894653 C-4.76754105 21.1369223 -5.84979462 21.13489807 -6.96484375 21.1328125 C-8.62030968 21.13424759 -8.62030968 21.13424759 -10.30921936 21.13571167 C-12.64877377 21.13639372 -14.98833006 21.1345377 -17.32788086 21.13037109 C-20.91850014 21.12502827 -24.50899404 21.13031266 -28.09960938 21.13671875 C-30.36718778 21.13605787 -32.6347661 21.13477651 -34.90234375 21.1328125 C-36.52268776 21.13584885 -36.52268776 21.13584885 -38.17576599 21.13894653 C-39.17342484 21.13579437 -40.17108368 21.13264221 -41.19897461 21.12939453 C-42.52015541 21.12820114 -42.52015541 21.12820114 -43.86802673 21.12698364 C-46 21 -46 21 -48 20 C-48 16.04 -48 12.08 -48 8 C-46.02 8 -44.04 8 -42 8 C-42 10.64 -42 13.28 -42 16 C-28.14 16 -14.28 16 0 16 C0 10.72 0 5.44 0 0 Z " fill="#96D591" transform="translate(51,35)"/>
  <path d="M0 0 C16.5 0 33 0 50 0 C51.4783226 2.95664519 51.06032783 5.74229737 51 9 C49.68 9 48.36 9 47 9 C47 7.68 47 6.36 47 5 C32.48 5 17.96 5 3 5 C3 9.62 3 14.24 3 19 C1.35 19.33 -0.3 19.66 -2 20 C-2 14.06 -2 8.12 -2 2 C-1.34 2 -0.68 2 0 2 C0 1.34 0 0.68 0 0 Z " fill="#97D692" transform="translate(5,3)"/>
  <path d="M0 0 C0.66 0.33 1.32 0.66 2 1 C-1.0998089 4.89690262 -4.07877505 7.90429609 -8 11 C-8.38454346 11.69061523 -8.76908691 12.38123047 -9.1652832 13.09277344 C-11 15 -11 15 -14.46166992 15.45410156 C-15.88476003 15.45346973 -17.30795004 15.43095335 -18.73046875 15.390625 C-19.48088943 15.38496521 -20.23131012 15.37930542 -21.00447083 15.37347412 C-23.39946504 15.35109668 -25.79295869 15.30090171 -28.1875 15.25 C-29.81182734 15.22993659 -31.43617815 15.21168553 -33.06054688 15.1953125 C-37.04094207 15.15122794 -41.02021671 15.08219427 -45 15 C-45 14.67 -45 14.34 -45 14 C-34.11 14 -23.22 14 -12 14 C-11.34 12.68 -10.68 11.36 -10 10 C-8 7.75 -8 7.75 -6 6 C-5.34 6 -4.68 6 -4 6 C-3.566875 5.071875 -3.566875 5.071875 -3.125 4.125 C-2 2 -2 2 0 0 Z " fill="#010301" transform="translate(53,25)"/>
  <path d="M0 0 C2.8203125 -0.29296875 2.8203125 -0.29296875 6.125 -0.1875 C7.76855469 -0.14689453 7.76855469 -0.14689453 9.4453125 -0.10546875 C10.28835937 -0.07066406 11.13140625 -0.03585938 12 0 C11.01 1.485 11.01 1.485 10 3 C7.1796875 3.29296875 7.1796875 3.29296875 3.875 3.1875 C2.23144531 3.14689453 2.23144531 3.14689453 0.5546875 3.10546875 C-0.28835937 3.07066406 -1.13140625 3.03585938 -2 3 C-1.34 2.01 -0.68 1.02 0 0 Z " fill="#16250E" transform="translate(29,31)"/>
  <path d="M0 0 C2.1640625 -0.29296875 2.1640625 -0.29296875 4.625 -0.1875 C5.44226563 -0.16042969 6.25953125 -0.13335938 7.1015625 -0.10546875 C8.04128906 -0.05326172 8.04128906 -0.05326172 9 0 C8.01 1.485 8.01 1.485 7 3 C4.8359375 3.29296875 4.8359375 3.29296875 2.375 3.1875 C1.55773437 3.16042969 0.74046875 3.13335937 -0.1015625 3.10546875 C-0.72804688 3.07066406 -1.35453125 3.03585938 -2 3 C-1.34 2.01 -0.68 1.02 0 0 Z " fill="#15250D" transform="translate(14,31)"/>
  <path d="M0 0 C0.66 0.33 1.32 0.66 2 1 C-1.3618226 5.25171681 -4.74828319 8.6381774 -9 12 C-9.66 11.67 -10.32 11.34 -11 11 C-9.37660195 9.29115995 -7.70680947 7.62553283 -6 6 C-5.34 6 -4.68 6 -4 6 C-3.71125 5.38125 -3.4225 4.7625 -3.125 4.125 C-2 2 -2 2 0 0 Z " fill="#0E2501" transform="translate(53,25)"/>
</svg>